<svg width="383" height="34" viewBox="0 0 383 34" fill="none" xmlns="http://www.w3.org/2000/svg">
<path d="M16.6569 17.0602L28.0465 10.5087C30.7679 8.99681 31.675 5.56986 30.0624 2.84846C28.4497 0.127059 25.1235 -0.780075 22.4021 0.832607L2.74756 12.1214L16.6569 17.0602Z" fill="#EA4335"/>
<path d="M25.3252 33.9933C27.2403 33.9933 29.1554 32.9853 30.1633 31.1711C31.6752 28.4497 30.7681 25.0227 28.1474 23.5108L8.39209 12.1213C5.67069 10.6094 2.24374 11.5165 0.731852 14.1371C-0.780037 16.8585 0.127096 20.2855 2.7477 21.7973L22.5031 33.2877C23.4102 33.7917 24.3173 33.9933 25.3252 33.9933Z" fill="#4285F4"/>
<path d="M44.8787 33.9934C45.7858 33.9934 46.7938 33.7918 47.7009 33.2878L67.4562 21.8983L53.7484 16.8586L42.1573 23.511C39.4359 25.0228 38.5288 28.4498 40.1414 31.1712C41.0486 32.9855 42.9636 33.9934 44.8787 33.9934Z" fill="#FBBC04"/>
<path d="M64.6343 22.6039C66.5494 22.6039 68.4645 21.5959 69.4724 19.7817C70.9843 17.0603 70.0771 13.6333 67.4565 12.1214L47.7012 0.731852C44.9798 -0.780037 41.5528 0.127096 40.0409 2.7477C38.529 5.46911 39.4362 8.89605 42.0568 10.4079L61.8121 21.7975C62.7193 22.4023 63.6264 22.6039 64.6343 22.6039Z" fill="#0F9D58"/>
<path d="M96 21.2856C96 19.924 96.2156 18.7099 96.6468 17.6433C97.078 16.554 97.6566 15.6463 98.3828 14.9201C99.109 14.1712 99.96 13.6038 100.936 13.218C101.912 12.8322 102.944 12.6393 104.034 12.6393C105.191 12.6393 106.269 12.9003 107.267 13.4223C108.289 13.9215 109.072 14.7045 109.616 15.7711H110.025V6.17164H112.68V30H110.025V27.4129H109.616C109.344 27.9349 108.992 28.3888 108.561 28.7746C108.152 29.1603 107.699 29.4781 107.199 29.7277C106.723 29.9773 106.212 30.1589 105.668 30.2723C105.123 30.4085 104.601 30.4766 104.102 30.4766C102.967 30.4766 101.912 30.2837 100.936 29.8979C99.96 29.5121 99.0977 28.9561 98.3488 28.2299C97.6226 27.5037 97.0439 26.6073 96.6127 25.5407C96.2042 24.4514 96 23.2146 96 21.8303V21.2856ZM99.1658 24.3833C99.4381 25.1322 99.8239 25.779 100.323 26.3236C100.845 26.8456 101.446 27.2541 102.127 27.5491C102.808 27.8214 103.557 27.9576 104.374 27.9576C105.168 27.9576 105.906 27.8101 106.587 27.5151C107.267 27.22 107.857 26.8002 108.357 26.2556C108.879 25.7109 109.287 25.0641 109.582 24.3152C109.877 23.5437 110.025 22.6926 110.025 21.7622V21.3537C110.025 20.446 109.877 19.6177 109.582 18.8688C109.287 18.0972 108.879 17.4391 108.357 16.8944C107.857 16.3498 107.256 15.9299 106.553 15.6349C105.872 15.3172 105.146 15.1583 104.374 15.1583C103.58 15.1583 102.831 15.3058 102.127 15.6009C101.446 15.8959 100.845 16.3157 100.323 16.8604C99.8239 17.405 99.4267 18.0518 99.1317 18.8007C98.8594 19.5496 98.7232 20.3779 98.7232 21.2856V21.8303C98.7232 22.7834 98.8708 23.6344 99.1658 24.3833Z" fill="#0005DF"/>
<path d="M117.081 21.7622V20.9452C117.081 19.7652 117.286 18.6645 117.694 17.6433C118.125 16.6221 118.715 15.7484 119.464 15.0222C120.213 14.2733 121.087 13.6946 122.085 13.2861C123.107 12.8549 124.207 12.6393 125.387 12.6393C126.772 12.6393 127.963 12.9003 128.962 13.4223C129.983 13.9215 130.811 14.5456 131.447 15.2945C132.105 16.0434 132.581 16.8604 132.876 17.7454C133.194 18.6305 133.353 19.4474 133.353 20.1963V22.3749H119.737C119.805 24.0543 120.327 25.4045 121.302 26.4258C122.278 27.447 123.64 27.9576 125.387 27.9576C126.182 27.9576 126.874 27.8668 127.464 27.6853C128.054 27.5037 128.553 27.2541 128.962 26.9364C129.393 26.6187 129.733 26.2556 129.983 25.8471C130.255 25.4159 130.471 24.962 130.63 24.4854L133.149 25.1663C132.672 26.7321 131.787 28.0143 130.493 29.0128C129.223 29.9887 127.498 30.4766 125.319 30.4766C124.117 30.4766 123.005 30.2723 121.983 29.8639C120.985 29.4327 120.122 28.8313 119.396 28.0597C118.67 27.2881 118.103 26.369 117.694 25.3024C117.286 24.2358 117.081 23.0557 117.081 21.7622ZM119.805 19.924H130.698C130.652 19.1978 130.471 18.5397 130.153 17.9497C129.858 17.3596 129.461 16.8604 128.962 16.4519C128.485 16.0434 127.929 15.7257 127.294 15.4987C126.681 15.2718 126.045 15.1583 125.387 15.1583C124.638 15.1583 123.935 15.2832 123.277 15.5328C122.641 15.7597 122.074 16.0888 121.575 16.52C121.098 16.9511 120.701 17.4618 120.383 18.0518C120.088 18.6191 119.895 19.2432 119.805 19.924Z" fill="#0005DF"/>
<path d="M140.682 13.1159L145.856 28.7746H146.265L151.439 13.1159H154.57L148.681 30H143.439L137.55 13.1159H140.682Z" fill="#0005DF"/>
<path d="M164.521 13.1159V8.8268C164.521 8.05521 164.759 7.41979 165.236 6.92053C165.735 6.42127 166.37 6.17164 167.142 6.17164H173.814V8.62255H168.095C167.482 8.62255 167.176 8.96296 167.176 9.64377V13.1159H174.222V15.5668H167.176V30H164.521V15.5668H159.312V13.1159H164.521Z" fill="#0005DF"/>
<path d="M179.611 21.7622V20.9452C179.611 19.7652 179.815 18.6645 180.224 17.6433C180.655 16.6221 181.245 15.7484 181.994 15.0222C182.743 14.2733 183.616 13.6946 184.615 13.2861C185.636 12.8549 186.737 12.6393 187.917 12.6393C189.301 12.6393 190.493 12.9003 191.491 13.4223C192.512 13.9215 193.341 14.5456 193.976 15.2945C194.634 16.0434 195.111 16.8604 195.406 17.7454C195.724 18.6305 195.882 19.4474 195.882 20.1963V22.3749H182.266C182.334 24.0543 182.856 25.4045 183.832 26.4258C184.808 27.447 186.169 27.9576 187.917 27.9576C188.711 27.9576 189.403 27.8668 189.993 27.6853C190.583 27.5037 191.083 27.2541 191.491 26.9364C191.922 26.6187 192.263 26.2556 192.512 25.8471C192.785 25.4159 193 24.962 193.159 24.4854L195.678 25.1663C195.202 26.7321 194.317 28.0143 193.023 29.0128C191.752 29.9887 190.027 30.4766 187.849 30.4766C186.646 30.4766 185.534 30.2723 184.513 29.8639C183.514 29.4327 182.652 28.8313 181.926 28.0597C181.2 27.2881 180.632 26.369 180.224 25.3024C179.815 24.2358 179.611 23.0557 179.611 21.7622ZM182.334 19.924H193.227C193.182 19.1978 193 18.5397 192.683 17.9497C192.388 17.3596 191.99 16.8604 191.491 16.4519C191.015 16.0434 190.459 15.7257 189.823 15.4987C189.21 15.2718 188.575 15.1583 187.917 15.1583C187.168 15.1583 186.465 15.2832 185.806 15.5328C185.171 15.7597 184.604 16.0888 184.104 16.52C183.628 16.9511 183.231 17.4618 182.913 18.0518C182.618 18.6191 182.425 19.2432 182.334 19.924Z" fill="#0005DF"/>
<path d="M203.722 23.7366C203.836 25.0301 204.335 26.074 205.22 26.8683C206.105 27.6399 207.285 28.0257 208.76 28.0257C210.008 28.0257 211.007 27.7874 211.756 27.3108C212.527 26.8116 212.913 26.1194 212.913 25.2343C212.913 24.2812 212.539 23.6004 211.79 23.1919C211.041 22.7834 209.827 22.5224 208.147 22.409C206.196 22.2728 204.698 21.8189 203.654 21.0474C202.61 20.2758 202.088 19.1524 202.088 17.6773V17.4731C202.088 16.6788 202.258 15.9867 202.599 15.3966C202.939 14.7839 203.393 14.2733 203.96 13.8648C204.55 13.4563 205.209 13.1499 205.935 12.9457C206.661 12.7415 207.421 12.6393 208.215 12.6393C209.327 12.6393 210.303 12.7982 211.143 13.1159C211.983 13.4109 212.686 13.8081 213.253 14.3073C213.821 14.7839 214.252 15.3399 214.547 15.9753C214.865 16.6107 215.069 17.2462 215.16 17.8816L212.641 18.4943C212.527 17.405 212.085 16.554 211.313 15.9413C210.564 15.3285 209.577 15.0222 208.352 15.0222C207.875 15.0222 207.41 15.0789 206.956 15.1924C206.525 15.2832 206.139 15.4307 205.799 15.6349C205.458 15.8392 205.186 16.1001 204.982 16.4178C204.777 16.7129 204.675 17.0646 204.675 17.4731C204.675 18.2901 205.016 18.9141 205.696 19.3453C206.4 19.7765 207.671 20.0602 209.509 20.1963C211.483 20.3552 212.981 20.8318 214.002 21.626C215.046 22.3976 215.568 23.5323 215.568 25.0301V25.2343C215.568 26.0513 215.398 26.7889 215.058 27.447C214.74 28.0824 214.286 28.627 213.696 29.0809C213.129 29.5348 212.425 29.8752 211.585 30.1021C210.768 30.3518 209.872 30.4766 208.896 30.4766C207.58 30.4766 206.445 30.3064 205.492 29.966C204.562 29.6029 203.779 29.1377 203.143 28.5703C202.531 27.9803 202.065 27.3222 201.748 26.596C201.43 25.8471 201.248 25.0982 201.203 24.3493L203.722 23.7366Z" fill="#0005DF"/>
<path d="M221.434 13.1159H226.744V6.17164H229.399V13.1159H235.935V15.5668H229.399V26.5279C229.399 27.2087 229.705 27.5491 230.318 27.5491H235.118V30H229.365C228.593 30 227.958 29.7504 227.459 29.2511C226.982 28.7519 226.744 28.1164 226.744 27.3449V15.5668H221.434V13.1159Z" fill="#0005DF"/>
<path d="M262.677 27.3449H264.72V8.8268H262.677V6.17164H272.311C273.446 6.17164 274.444 6.33049 275.306 6.6482C276.191 6.96591 276.929 7.3971 277.519 7.94175C278.132 8.48639 278.586 9.14451 278.881 9.9161C279.198 10.665 279.357 11.482 279.357 12.367V12.7755C279.357 13.4336 279.255 14.035 279.051 14.5797C278.847 15.1243 278.563 15.6122 278.2 16.0434C277.837 16.4746 277.406 16.849 276.906 17.1667C276.43 17.4618 275.908 17.6887 275.34 17.8475V18.256C276.475 18.5737 277.428 19.1865 278.2 20.0942C278.971 20.9793 279.357 22.0686 279.357 23.3621V23.7706C279.357 24.6557 279.198 25.484 278.881 26.2556C278.586 27.0044 278.132 27.6626 277.519 28.2299C276.929 28.7746 276.191 29.2057 275.306 29.5235C274.444 29.8412 273.446 30 272.311 30H262.677V27.3449ZM272.107 27.3449C273.446 27.3449 274.535 27.0158 275.375 26.3577C276.214 25.6769 276.634 24.7464 276.634 23.5664V23.3621C276.634 22.1367 276.237 21.1722 275.443 20.4687C274.648 19.7425 273.57 19.3794 272.209 19.3794H267.579V27.3449H272.107ZM267.579 8.8268V16.7242H272.209C273.57 16.7242 274.648 16.3725 275.443 15.6689C276.237 14.9654 276.634 14.001 276.634 12.7755V12.5713C276.634 11.4139 276.214 10.5061 275.375 9.84801C274.535 9.1672 273.446 8.8268 272.107 8.8268H267.579Z" fill="#0005DF"/>
<path d="M287.061 27.5491V15.5668H283.589V13.1159H289.716V15.3626H290.124C290.556 14.4321 291.168 13.7513 291.963 13.3202C292.757 12.8663 293.665 12.6393 294.686 12.6393C296.388 12.6393 297.761 13.1953 298.805 14.3073C299.849 15.4193 300.405 17.0419 300.473 19.1751L297.681 19.5836C297.681 18.0177 297.307 16.8944 296.558 16.2136C295.809 15.5101 294.89 15.1583 293.801 15.1583C293.097 15.1583 292.485 15.2945 291.963 15.5668C291.463 15.8392 291.044 16.2136 290.703 16.6902C290.363 17.1667 290.113 17.7227 289.954 18.3582C289.795 18.9936 289.716 19.6744 289.716 20.4006V27.5491H294.005V30H283.18V27.5491H287.061Z" fill="#0005DF"/>
<path d="M304.023 21.8303V21.2856C304.023 19.9013 304.228 18.6759 304.636 17.6093C305.045 16.5427 305.601 15.6463 306.304 14.9201C307.03 14.1712 307.87 13.6038 308.823 13.218C309.776 12.8322 310.786 12.6393 311.853 12.6393C313.01 12.6393 314.054 12.9003 314.984 13.4223C315.938 13.9215 316.686 14.7045 317.231 15.7711H317.64V13.1159H320.295V26.5279C320.295 27.2087 320.601 27.5491 321.214 27.5491H322.065V30H320.261C319.489 30 318.854 29.7504 318.354 29.2511C317.878 28.7519 317.64 28.1164 317.64 27.3449V27.1406H317.231C316.686 28.2753 315.926 29.115 314.95 29.6596C313.997 30.2043 312.987 30.4766 311.921 30.4766C310.809 30.4766 309.776 30.295 308.823 29.9319C307.87 29.5461 307.03 28.9901 306.304 28.2639C305.601 27.5151 305.045 26.6073 304.636 25.5407C304.228 24.4741 304.023 23.2373 304.023 21.8303ZM306.747 21.2856V21.8303C306.747 23.7593 307.246 25.2684 308.244 26.3577C309.266 27.4243 310.582 27.9576 312.193 27.9576C312.987 27.9576 313.714 27.8101 314.372 27.5151C315.052 27.22 315.631 26.8002 316.108 26.2556C316.584 25.7109 316.959 25.0641 317.231 24.3152C317.503 23.5437 317.64 22.6926 317.64 21.7622V21.3537C317.64 20.446 317.503 19.6177 317.231 18.8688C316.959 18.0972 316.573 17.4391 316.074 16.8944C315.597 16.3498 315.018 15.9299 314.338 15.6349C313.68 15.3172 312.965 15.1583 312.193 15.1583C311.399 15.1583 310.673 15.3058 310.014 15.6009C309.356 15.8959 308.778 16.3157 308.278 16.8604C307.802 17.3823 307.427 18.0291 307.155 18.8007C306.883 19.5496 306.747 20.3779 306.747 21.2856Z" fill="#0005DF"/>
<path d="M328.781 23.7366C328.895 25.0301 329.394 26.074 330.279 26.8683C331.164 27.6399 332.344 28.0257 333.819 28.0257C335.067 28.0257 336.066 27.7874 336.815 27.3108C337.586 26.8116 337.972 26.1194 337.972 25.2343C337.972 24.2812 337.598 23.6004 336.849 23.1919C336.1 22.7834 334.886 22.5224 333.206 22.409C331.255 22.2728 329.757 21.8189 328.713 21.0474C327.669 20.2758 327.147 19.1524 327.147 17.6773V17.4731C327.147 16.6788 327.317 15.9867 327.658 15.3966C327.998 14.7839 328.452 14.2733 329.019 13.8648C329.61 13.4563 330.268 13.1499 330.994 12.9457C331.72 12.7415 332.48 12.6393 333.275 12.6393C334.387 12.6393 335.362 12.7982 336.202 13.1159C337.042 13.4109 337.745 13.8081 338.313 14.3073C338.88 14.7839 339.311 15.3399 339.606 15.9753C339.924 16.6107 340.128 17.2462 340.219 17.8816L337.7 18.4943C337.586 17.405 337.144 16.554 336.372 15.9413C335.623 15.3285 334.636 15.0222 333.411 15.0222C332.934 15.0222 332.469 15.0789 332.015 15.1924C331.584 15.2832 331.198 15.4307 330.858 15.6349C330.517 15.8392 330.245 16.1001 330.041 16.4178C329.836 16.7129 329.734 17.0646 329.734 17.4731C329.734 18.2901 330.075 18.9141 330.756 19.3453C331.459 19.7765 332.73 20.0602 334.568 20.1963C336.542 20.3552 338.04 20.8318 339.061 21.626C340.105 22.3976 340.627 23.5323 340.627 25.0301V25.2343C340.627 26.0513 340.457 26.7889 340.117 27.447C339.799 28.0824 339.345 28.627 338.755 29.0809C338.188 29.5348 337.484 29.8752 336.645 30.1021C335.828 30.3518 334.931 30.4766 333.955 30.4766C332.639 30.4766 331.504 30.3064 330.551 29.966C329.621 29.6029 328.838 29.1377 328.203 28.5703C327.59 27.9803 327.125 27.3222 326.807 26.596C326.489 25.8471 326.308 25.0982 326.262 24.3493L328.781 23.7366Z" fill="#0005DF"/>
<path d="M347.48 30V27.5491H353.403V15.5668H348.093V13.1159H356.058V27.5491H361.573V30H347.48ZM352.314 8.07791C352.314 7.41979 352.541 6.86379 352.994 6.40992C353.471 5.93335 354.038 5.69507 354.696 5.69507C355.355 5.69507 355.911 5.93335 356.364 6.40992C356.841 6.86379 357.079 7.41979 357.079 8.07791C357.079 8.73602 356.841 9.30337 356.364 9.77993C355.911 10.2338 355.355 10.4607 354.696 10.4607C354.038 10.4607 353.471 10.2338 352.994 9.77993C352.541 9.30337 352.314 8.73602 352.314 8.07791Z" fill="#0005DF"/>
<path d="M367.915 30V27.5491H374.042V8.62255H368.119V6.17164H376.697V27.5491H382.824V30H367.915Z" fill="#0005DF"/>
</svg>
